<?xml version="1.0" encoding="UTF-8" standalone="no"?>
<svg
   viewBox="0 0 24 24"
   version="1.1"
   id="svg1"
   sodipodi:docname="zoom_in.svg"
   inkscape:version="1.3.2 (091e20e, 2023-11-25, custom)"
   inkscape:export-filename="zoom_in.png"
   inkscape:export-xdpi="200"
   inkscape:export-ydpi="200"
   xmlns:inkscape="http://www.inkscape.org/namespaces/inkscape"
   xmlns:sodipodi="http://sodipodi.sourceforge.net/DTD/sodipodi-0.dtd"
   xmlns="http://www.w3.org/2000/svg"
   xmlns:svg="http://www.w3.org/2000/svg">
  <defs
     id="defs1" />
  <sodipodi:namedview
     id="namedview1"
     pagecolor="#ffffff"
     bordercolor="#000000"
     borderopacity="0.25"
     inkscape:showpageshadow="2"
     inkscape:pageopacity="0.0"
     inkscape:pagecheckerboard="0"
     inkscape:deskcolor="#d1d1d1"
     inkscape:zoom="33"
     inkscape:cx="12"
     inkscape:cy="12"
     inkscape:window-width="1920"
     inkscape:window-height="1016"
     inkscape:window-x="-8"
     inkscape:window-y="-8"
     inkscape:window-maximized="1"
     inkscape:current-layer="svg1"
     inkscape:export-bgcolor="#ffffffff" />
  <g
     id="g2"
     transform="translate(0.78787879)">
    <path
       d="M 15.5,14 H 14.71 L 14.43,13.73 C 15.41,12.59 16,11.11 16,9.5 16,5.91 13.09,3 9.5,3 5.91,3 3,5.91 3,9.5 3,13.09 5.91,16 9.5,16 c 1.61,0 3.09,-0.59 4.23,-1.57 L 14,14.71 v 0.79 l 5,4.99 1.49,-1.49 z m -6,0 C 7.01,14 5,11.99 5,9.5 5,7.01 7.01,5 9.5,5 11.99,5 14,7.01 14,9.5 14,11.99 11.99,14 9.5,14"
       id="path1"
       style="fill:#ff0000;fill-opacity:0.99948" />
    <rect
       style="fill:#ff0000;fill-opacity:0.99948;stroke:none;stroke-width:1.32283;stroke-linecap:round;stroke-linejoin:bevel;stroke-dasharray:5.29127, 5.29127"
       id="rect1"
       width="1.4545455"
       height="5.848485"
       x="8.69697"
       y="6.6060605" />
    <rect
       style="fill:#ff0000;fill-opacity:0.99948;stroke:none;stroke-width:1.32283;stroke-linecap:round;stroke-linejoin:bevel;stroke-dasharray:5.29127, 5.29127"
       id="rect1-8"
       width="1.4545455"
       height="5.848485"
       x="8.742425"
       y="-12.348485"
       transform="rotate(90)" />
  </g>
  <rect
     style="opacity:1;fill:none;fill-opacity:0.99948;stroke:#ff0000;stroke-width:1.323;stroke-linecap:round;stroke-linejoin:round;stroke-dasharray:none;stroke-dashoffset:0;stroke-opacity:1"
     id="rect2"
     width="22.636364"
     height="22.666666"
     x="0.69696969"
     y="0.69696969"
     ry="1.2727273"
     rx="0.969697" />
</svg>
